Coordinates
version=1
nRows=6
nColumns=63
inDegrees=yes

Units are S.I. units (second, meters, Newtons, ...)
If the header above contains a line with 'inDegrees', this indicates whether rotational values are in degrees (yes) or radians (no).

endheader
time	pelvis_tilt	pelvis_list	pelvis_rotation	pelvis_tx	pelvis_ty	pelvis_tz	hip_flexion_r	hip_adduction_r	hip_rotation_r	knee_angle_r	knee_angle_r_beta	ankle_angle_r	subtalar_angle_r	mtp_angle_r	hip_flexion_l	hip_adduction_l	hip_rotation_l	knee_angle_l	knee_angle_l_beta	ankle_angle_l	subtalar_angle_l	mtp_angle_l	L5_S1_Flex_Ext	L5_S1_Lat_Bending	L5_S1_axial_rotation	L4_L5_Flex_Ext	L4_L5_Lat_Bending	L4_L5_axial_rotation	L3_L4_Flex_Ext	L3_L4_Lat_Bending	L3_L4_axial_rotation	L2_L3_Flex_Ext	L2_L3_Lat_Bending	L2_L3_axial_rotation	L1_L2_Flex_Ext	L1_L2_Lat_Bending	L1_L2_axial_rotation	L1_T12_Flex_Ext	L1_T12_Lat_Bending	L1_T12_axial_rotation	Abs_r3	Abs_r2	Abs_r1	Abs_t1	Abs_t2	neck_flexion	neck_bending	neck_rotation	arm_flex_r	arm_add_r	arm_rot_r	elbow_flex_r	pro_sup_r	wrist_flex_r	wrist_dev_r	arm_flex_l	arm_add_l	arm_rot_l	elbow_flex_l	pro_sup_l	wrist_flex_l	wrist_dev_l
0.000000	3.715208	-3.922973	96.405291	0.220559	1.107171	0.444419	0.387140	2.743951	-6.625651	6.723223	0.117342	27.745884	17.505261	0.000000	2.936261	-5.455188	-4.670603	10.394184	0.181413	25.742653	10.682182	0.000000	0.167706	0.507067	0.917311	0.311447	0.674399	0.974643	0.275524	1.232883	0.974643	0.191671	1.232883	0.802647	0.155732	1.034011	0.745315	0.095827	0.785447	0.687983	1.197907	5.736046	5.101808	0.000000	0.000000	22.133453	-3.289261	-4.504672	16.987222	-7.417279	36.291239	44.562874	88.126354	9.092357	8.837272	23.901426	-5.862325	51.871469	44.833749	93.228078	-3.944926	36.821882
0.016949	3.571811	-3.985570	95.518663	0.222080	1.109398	0.444532	0.571981	2.613055	-5.745348	6.763563	0.118046	27.520646	17.568847	0.000000	3.057273	-5.450553	-6.792024	10.829261	0.189006	25.619066	12.218203	0.000000	0.163107	0.494323	1.021425	0.302907	0.657449	1.085264	0.267969	1.201897	1.085264	0.186415	1.201897	0.893747	0.151461	1.008023	0.829908	0.093200	0.765706	0.766069	1.165059	5.591880	5.680859	0.000000	0.000000	21.734374	-3.161861	-3.962429	16.261853	-7.827462	38.590017	43.660843	80.953871	9.903757	10.329708	22.120139	-5.953927	51.995628	43.696630	86.035044	-4.729419	30.959030
0.033898	3.434309	-3.980688	94.845847	0.223312	1.111407	0.444327	0.615881	2.500566	-5.041556	6.739331	0.117624	27.307058	17.594177	0.000000	3.031934	-5.413602	-8.182463	11.047650	0.192818	25.427311	13.148731	0.000000	0.157837	0.480446	1.099325	0.293119	0.638993	1.168033	0.259311	1.168157	1.168033	0.180392	1.168157	0.961909	0.146568	0.979726	0.893202	0.090188	0.744211	0.824494	1.127415	5.434904	6.114116	0.000000	0.000000	21.303011	-3.030565	-3.552094	15.587945	-8.196999	40.663581	42.900388	75.014980	10.691179	11.457952	20.634681	-6.124020	52.380514	42.830451	80.641383	-4.996112	26.024291
0.050847	3.303724	-3.917973	94.366179	0.224278	1.113201	0.443852	0.538122	2.405512	-4.498780	6.659590	0.116232	27.106491	17.586158	0.000000	2.881356	-5.349500	-8.926333	11.077217	0.193334	25.179108	13.547492	0.000000	0.152057	0.465782	1.153482	0.282385	0.619490	1.225574	0.249814	1.132503	1.225574	0.173786	1.132503	1.009297	0.141200	0.949823	0.937204	0.086885	0.721497	0.865111	1.086126	5.269022	6.415320	0.000000	0.000000	20.849607	-2.897463	-3.259668	14.966656	-8.526919	42.515998	42.271148	70.203840	11.447727	12.263189	19.419797	-6.359094	52.979571	42.208719	76.856648	-4.820495	21.946440
0.067797	3.181079	-3.807071	94.058995	0.225003	1.114787	0.443154	0.357986	2.326919	-4.101530	6.533406	0.114029	26.920317	17.549696	0.000000	2.626651	-5.263414	-9.108047	10.945832	0.191041	24.886175	13.488214	0.000000	0.145927	0.450676	1.186366	0.271001	0.599399	1.260514	0.239744	1.095774	1.260514	0.166780	1.095774	1.038070	0.135508	0.919019	0.963922	0.083383	0.698097	0.889774	1.042343	5.098138	6.598211	0.000000	0.000000	20.384406	-2.764640	-3.071151	14.399142	-8.818250	44.151340	41.762763	66.414610	12.166501	12.786607	18.450230	-6.645639	53.746240	41.804938	74.490392	-4.278060	18.654253
0.084746	3.067398	-3.657628	93.903631	0.225511	1.116168	0.442283	0.094756	2.263815	-3.834312	6.369843	0.111175	26.749910	17.489696	0.000000	2.288932	-5.160508	-8.812017	10.681363	0.186425	24.560234	13.044623	0.000000	0.139610	0.435473	1.200448	0.259269	0.579179	1.275476	0.229365	1.058809	1.275476	0.159560	1.058809	1.050392	0.129641	0.888017	0.975364	0.079773	0.674548	0.900336	0.997217	4.926158	6.676530	0.000000	0.000000	19.917653	-2.634185	-2.972542	13.886560	-9.072019	45.573677	41.364872	63.541450	12.840606	13.069394	17.700728	-6.970147	54.633964	41.592614	73.352168	-3.444297	16.076504
